<svg width="48" height="32" viewBox="0 0 48 32" fill="none" xmlns="http://www.w3.org/2000/svg">
    <path d="M28.5034 4.31269C27.4219 3.3261 27.4219 1.72653 28.5034 0.739941C29.5848 -0.246647 31.3382 -0.246647 32.4197 0.739941L47.1889 14.2136C47.7296 14.7069 48 15.3535 48 16C48 16.3425 47.9253 16.6692 47.7899 16.967C47.6547 17.265 47.4544 17.5442 47.1889 17.7864L32.4197 31.2601C31.3382 32.2466 29.5848 32.2466 28.5034 31.2601C27.4219 30.2735 27.4219 28.6739 28.5034 27.6873L38.5453 18.5263H2.76923C1.23983 18.5263 0 17.3952 0 16C0 14.6048 1.23983 13.4737 2.76923 13.4737H38.5453L28.5034 4.31269Z" fill="white"/>
</svg>
