<svg width="44" height="32" viewBox="0 0 44 32" xmlns="http://www.w3.org/2000/svg">
<path opacity="0.5" d="M17.6011 4.26777C18.5774 3.29146 18.5774 1.70854 17.6011 0.732233C16.6248 -0.244078 15.0419 -0.244078 14.0656 0.732233L0.732233 14.0656C0.244078 14.5537 0 15.1935 0 15.8333C0 16.1723 0.0674637 16.4955 0.189697 16.7903C0.311696 17.0852 0.492542 17.3614 0.732233 17.6011L14.0656 30.9344C15.0419 31.9107 16.6248 31.9107 17.6011 30.9344C18.5774 29.9581 18.5774 28.3752 17.6011 27.3989L8.53553 18.3333H40.8333C42.214 18.3333 43.3333 17.214 43.3333 15.8333C43.3333 14.4526 42.214 13.3333 40.8333 13.3333H8.53553L17.6011 4.26777Z"/>
</svg>
